<svg width="42" height="47" viewBox="0 0 42 47" fill="none" xmlns="http://www.w3.org/2000/svg">
<path d="M22.1053 29.6592V34.3369C20.1046 33.6207 17.9633 33.401 15.8614 33.6963C13.7595 33.9916 11.7582 34.7932 10.0257 36.0338C8.29315 37.2744 6.87992 38.9178 5.90468 40.826C4.92943 42.7342 4.42065 44.8515 4.42105 47H1.27152e-06C-0.00102233 44.2668 0.615979 41.5697 1.80372 39.1153C2.99146 36.661 4.71842 34.5145 6.85224 32.8403C8.98606 31.1662 11.4701 30.0089 14.114 29.4571C16.7579 28.9053 19.4915 28.9759 22.1053 29.6592ZM17.6842 26.8571C10.3563 26.8571 4.42105 20.8479 4.42105 13.4286C4.42105 6.00929 10.3563 0 17.6842 0C25.0121 0 30.9474 6.00929 30.9474 13.4286C30.9474 20.8479 25.0121 26.8571 17.6842 26.8571ZM17.6842 22.381C22.5695 22.381 26.5263 18.3748 26.5263 13.4286C26.5263 8.48238 22.5695 4.47619 17.6842 4.47619C12.7989 4.47619 8.84211 8.48238 8.84211 13.4286C8.84211 18.3748 12.7989 22.381 17.6842 22.381ZM30.9474 35.8095V29.0952H35.3684V35.8095H42V40.2857H35.3684V47H30.9474V40.2857H24.3158V35.8095H30.9474Z" fill="white"/>
</svg>
