<svg id="visual" viewBox="0 0 1700 1080" width="1700" height="1080" xmlns="http://www.w3.org/2000/svg" xmlns:xlink="http://www.w3.org/1999/xlink" version="1.1"><rect x="0" y="0" width="1700" height="1080" fill="#ffffff"></rect><defs><linearGradient id="grad1_0" x1="36.5%" y1="0%" x2="100%" y2="100%"><stop offset="18.51851851851852%" stop-color="#ffffff" stop-opacity="1"></stop><stop offset="81.48148148148148%" stop-color="#ffffff" stop-opacity="1"></stop></linearGradient></defs><defs><linearGradient id="grad2_0" x1="0%" y1="0%" x2="63.5%" y2="100%"><stop offset="18.51851851851852%" stop-color="#ffffff" stop-opacity="1"></stop><stop offset="81.48148148148148%" stop-color="#ffffff" stop-opacity="1"></stop></linearGradient></defs><g transform="translate(1700, 0)"><path d="M0 402.8C-35.1 372.6 -70.1 342.3 -106.3 327.2C-142.5 312 -179.7 311.9 -218.7 301C-257.6 290 -298.3 268.3 -325.9 236.8C-353.4 205.3 -367.9 164.1 -378.5 123C-389.2 81.9 -396 41 -402.8 0L0 0Z" fill="#83F1FF"></path></g><g transform="translate(0, 1080)"><path d="M0 -402.8C35.7 -372.9 71.3 -343.1 105.1 -323.4C138.8 -303.7 170.6 -294.1 202.8 -279.1C234.9 -264.1 267.4 -243.7 300.1 -218.1C332.9 -192.5 365.9 -161.7 383.1 -124.5C400.3 -87.3 401.5 -43.6 402.8 0L0 0Z" fill="#83F1FF"></path></g></svg>