<svg width="46" height="49" viewBox="0 0 46 49" fill="none" xmlns="http://www.w3.org/2000/svg">
<path d="M4.83333 0C4.19239 0 3.5777 0.254612 3.12449 0.707825C2.67128 1.16104 2.41667 1.77573 2.41667 2.41667V7.25H7.25V4.83333H41.0833V43.5H7.25V41.0833H2.41667V45.9167C2.41667 46.5576 2.67128 47.1723 3.12449 47.6255C3.5777 48.0787 4.19239 48.3333 4.83333 48.3333H43.5C44.1409 48.3333 44.7556 48.0787 45.2088 47.6255C45.6621 47.1723 45.9167 46.5576 45.9167 45.9167V2.41667C45.9167 1.77573 45.6621 1.16104 45.2088 0.707825C44.7556 0.254612 44.1409 0 43.5 0H4.83333ZM16.9167 33.8333C16.9167 31.9105 17.6805 30.0664 19.0401 28.7068C20.3998 27.3472 22.2438 26.5833 24.1667 26.5833C26.0895 26.5833 27.9336 27.3472 29.2932 28.7068C30.6528 30.0664 31.4167 31.9105 31.4167 33.8333H16.9167ZM24.1667 24.1667C22.8848 24.1667 21.6554 23.6574 20.749 22.751C19.8426 21.8446 19.3333 20.6152 19.3333 19.3333C19.3333 18.0515 19.8426 16.8221 20.749 15.9157C21.6554 15.0092 22.8848 14.5 24.1667 14.5C25.4485 14.5 26.6779 15.0092 27.5843 15.9157C28.4908 16.8221 29 18.0515 29 19.3333C29 20.6152 28.4908 21.8446 27.5843 22.751C26.6779 23.6574 25.4485 24.1667 24.1667 24.1667ZM9.66667 16.9167V12.0833H0V16.9167H9.66667ZM9.66667 21.75V26.5833H0V21.75H9.66667ZM9.66667 36.25V31.4167H0V36.25H9.66667Z" fill="white"/>
</svg>
