<svg width="49" height="49" viewBox="0 0 49 49" fill="none" xmlns="http://www.w3.org/2000/svg">
<path fill-rule="evenodd" clip-rule="evenodd" d="M33.3334 17.875C33.3334 20.2177 32.4027 22.4645 30.7461 24.1211C29.0896 25.7776 26.8428 26.7083 24.5 26.7083C22.1573 26.7083 19.9105 25.7776 18.2539 24.1211C16.5973 22.4645 15.6667 20.2177 15.6667 17.875C15.6667 15.5322 16.5973 13.2854 18.2539 11.6288C19.9105 9.97228 22.1573 9.04163 24.5 9.04163C26.8428 9.04163 29.0896 9.97228 30.7461 11.6288C32.4027 13.2854 33.3334 15.5322 33.3334 17.875ZM28.9167 17.875C28.9167 19.0463 28.4514 20.1697 27.6231 20.998C26.7948 21.8263 25.6714 22.2916 24.5 22.2916C23.3286 22.2916 22.2053 21.8263 21.377 20.998C20.5487 20.1697 20.0834 19.0463 20.0834 17.875C20.0834 16.7036 20.5487 15.5802 21.377 14.7519C22.2053 13.9236 23.3286 13.4583 24.5 13.4583C25.6714 13.4583 26.7948 13.9236 27.6231 14.7519C28.4514 15.5802 28.9167 16.7036 28.9167 17.875Z" fill="white"/>
<path fill-rule="evenodd" clip-rule="evenodd" d="M24.5 0.208313C11.0844 0.208313 0.208344 11.0844 0.208344 24.5C0.208344 37.9156 11.0844 48.7916 24.5 48.7916C37.9156 48.7916 48.7917 37.9156 48.7917 24.5C48.7917 11.0844 37.9156 0.208313 24.5 0.208313ZM4.62501 24.5C4.62501 29.1154 6.19955 33.3642 8.83851 36.7386C10.6923 34.3053 13.0833 32.3332 15.8249 30.9764C18.5665 29.6196 21.5846 28.9147 24.6436 28.9166C27.6632 28.9131 30.6437 29.5992 33.3579 30.9226C36.0721 32.2461 38.4482 34.1718 40.305 36.5531C42.2185 34.0435 43.5068 31.1144 44.0634 28.0081C44.62 24.9018 44.429 21.7076 43.506 18.6898C42.5831 15.672 40.9548 12.9174 38.7559 10.6538C36.557 8.39025 33.8506 6.68284 30.8609 5.67285C27.8711 4.66287 24.6837 4.37935 21.5626 4.84575C18.4415 5.31216 15.4763 6.51507 12.9124 8.35497C10.3485 10.1949 8.25951 12.6189 6.81839 15.4264C5.37727 18.2339 4.62541 21.3442 4.62501 24.5ZM24.5 44.375C19.9374 44.3824 15.5124 42.8127 11.9743 39.9318C13.3983 37.8927 15.2939 36.2278 17.4998 35.0789C19.7056 33.93 22.1564 33.3312 24.6436 33.3333C27.0996 33.3312 29.5207 33.9151 31.7058 35.0366C33.8908 36.1581 35.7767 37.7849 37.2068 39.7816C33.6413 42.7563 29.1433 44.3822 24.5 44.375Z" fill="white"/>
</svg>
